# xmcd CD database file
#
# Track frame offsets:
#	150
#	10682
#	22649
#	40088
#	55287
#	65025
#	77953
#	93358
#	107930
#	122042
#	133925
#	147585
#	166727
#	182010
#	196394
#	210614
#	223716
#	238884
#	253634
#	264723
#	281051
#	296271
#	311710
#	328978
#	344794
#
# Disc length: 4762 seconds
#
# Revision: 0
# Processed by: cddbd v1.5.1PL0 Copyright (c) Steve Scherf et al.
# Submitted via: CDex 1.51
#
DISCID=8b129819
DTITLE=George Strait - 50 Number Ones
DYEAR=1900
DGENRE=Country
TTITLE0=Heartland
TTITLE1=Easy Come, Easy Go
TTITLE2=I'd Like to Have That One Back
TTITLE3=The Man in Love With You
TTITLE4=The Big One
TTITLE5=You Can't Make a Heart Love Somebody
TTITLE6=Lead On
TTITLE7=Check Yes or No
TTITLE8=I Know She Still Loves Me
TTITLE9=Blue Clear Sky
TTITLE10=Carried Away
TTITLE11=I Can Still Make Cheyenne
TTITLE12=One Night at a Time
TTITLE13=Carrying Your Love With Me
TTITLE14=Today My World Slipped Away
TTITLE15=Round About Way
TTITLE16=I Just Want to Dance With You
TTITLE17=True
TTITLE18=We Really Shouldn't Be Doing This
TTITLE19=Write This Down
TTITLE20=The Best Day
TTITLE21=Go On
TTITLE22=Run
TTITLE23=Living and Living Well
TTITLE24=She'll Leave You With a Smile
EXTD=
EXTT0=
EXTT1=
EXTT2=
EXTT3=
EXTT4=
EXTT5=
EXTT6=
EXTT7=
EXTT8=
EXTT9=
EXTT10=
EXTT11=
EXTT12=
EXTT13=
EXTT14=
EXTT15=
EXTT16=
EXTT17=
EXTT18=
EXTT19=
EXTT20=
EXTT21=
EXTT22=
EXTT23=
EXTT24=
PLAYORDER=
